# xmcd
#
# Track frame offsets:
#	150
#	8018
#	21115
#	53287
#	67104
#	90090
#	110669
#	132770
#	148148
#	172990
#	197354
#
# Disc length: 2905 seconds
# Revision: 0
# Processed by: cddbd v1.5.2PL0 Copyright (c) Steve Scherf et al.
# Submitted via: dBpowerAMP V12.0
#
DISCID=820b570b
DTITLE=Floyd Lee - Underground
DYEAR=2000
DGENRE=Blues
TTITLE0=Ooh Baby
TTITLE1=Mojo Workin'
TTITLE2=Tokyo Woman
TTITLE3=Come Back Baby
TTITLE4=Do You Love Me
TTITLE5=Crack Alley
TTITLE6=Bull Frog
TTITLE7=Tell Me
TTITLE8=Jealous WOman
TTITLE9=Things I Used to Do
TTITLE10=Mister Moon
EXTD=
EXTT0=
EXTT1=
EXTT2=
EXTT3=
EXTT4=
EXTT5=
EXTT6=
EXTT7=
EXTT8=
EXTT9=
EXTT10=
PLAYORDER=
